<?xml version="1.0" encoding="utf-8"?>
<!-- Generator: Adobe Illustrator 16.0.0, SVG Export Plug-In . SVG Version: 6.00 Build 0)  -->
<!DOCTYPE svg PUBLIC "-//W3C//DTD SVG 1.1//EN" "http://www.w3.org/Graphics/SVG/1.1/DTD/svg11.dtd">
<svg version="1.1" id="Layer_1" xmlns="http://www.w3.org/2000/svg" xmlns:xlink="http://www.w3.org/1999/xlink" x="0px" y="0px"
	 width="191.725px" height="51.251px" viewBox="0 0 191.725 51.251" enable-background="new 0 0 191.725 51.251"
	 xml:space="preserve">
<g id="XMLID_64_">
	<path id="XMLID_76_" fill="#FFFFFF" d="M35.399,9.968H28.07c-0.193,0-0.382,0.065-0.576,0.199
		c-0.218,0.148-0.376,0.316-0.484,0.513l-7.708,17.707c-0.338,0.614-0.791,0.7-1.033,0.7s-0.698-0.085-1.012-0.658l-7.794-17.79
		C9.375,10.483,9.217,10.315,9,10.167c-0.196-0.133-0.385-0.198-0.577-0.198H1.226c-0.263,0-0.306,0.083-0.323,0.12
		c-0.039,0.078-0.078,0.209,0.031,0.45l13.325,30.05c0.108,0.188,0.267,0.354,0.475,0.496c0.196,0.133,0.384,0.199,0.578,0.199h5.87
		c0.192,0,0.382-0.065,0.578-0.198c0.214-0.146,0.376-0.319,0.485-0.515l13.446-30.205c0.038-0.077,0.058-0.14-0.018-0.27
		C35.634,10.028,35.584,9.968,35.399,9.968z"/>
	<path id="XMLID_73_" fill="#FFFFFF" d="M95.547,36.622c-1.237-1.563-2.418-3.081-3.538-4.556c-0.273-0.364-0.354-0.77-0.237-1.173
		c0.104-0.356,0.321-0.659,0.645-0.901c0.694-0.436,1.293-0.959,1.817-1.579c0.529-0.628,0.999-1.345,1.392-2.13
		c0.392-0.785,0.697-1.633,0.91-2.519c0.21-0.887,0.316-1.792,0.316-2.687c0-1.636-0.276-3.147-0.822-4.491
		c-0.548-1.343-1.313-2.521-2.277-3.501c-0.964-0.976-2.146-1.747-3.517-2.293c-1.375-0.547-2.901-0.824-4.538-0.824H71.968
		c-0.163,0-0.285,0.05-0.397,0.161c-0.111,0.112-0.161,0.235-0.161,0.396v30.2c0,0.161,0.05,0.284,0.161,0.396
		c0.114,0.111,0.237,0.162,0.401,0.162h6.612c0.162,0,0.287-0.05,0.398-0.163c0.114-0.112,0.164-0.234,0.164-0.395v-7.152
		c0-0.425,0.158-0.807,0.456-1.105c0.296-0.298,0.676-0.457,1.102-0.457h0.966c0.369,0,0.755,0.099,1.147,0.297
		c0.393,0.197,0.703,0.447,0.924,0.744c0.915,1.305,1.829,2.583,2.751,3.846c0.92,1.263,1.849,2.512,2.783,3.745
		c0.13,0.171,0.327,0.321,0.59,0.447c0.268,0.127,0.516,0.193,0.734,0.193h8.212l0.095-0.067c0.04-0.125,0.022-0.215-0.057-0.321
		C97.898,39.622,96.786,38.185,95.547,36.622z M88.753,22.758c-0.232,0.469-0.54,0.871-0.91,1.193
		c-0.368,0.321-0.78,0.562-1.221,0.713c-0.43,0.15-0.855,0.227-1.262,0.227h-4.657c-0.425,0-0.806-0.158-1.104-0.457
		c-0.295-0.295-0.453-0.678-0.453-1.104v-4.681c0-0.425,0.158-0.807,0.456-1.105c0.296-0.298,0.676-0.456,1.101-0.456h4.657
		c0.702,0,1.312,0.149,1.814,0.444c0.487,0.287,0.882,0.65,1.172,1.079c0.281,0.418,0.482,0.856,0.596,1.305
		c0.114,0.435,0.17,0.825,0.17,1.162C89.112,21.712,88.991,22.277,88.753,22.758z"/>
	<path id="XMLID_72_" fill="#FFFFFF" d="M125.505,9.968h-23.312c-0.162,0-0.284,0.05-0.396,0.162
		c-0.113,0.112-0.163,0.235-0.163,0.396v6.004c0,0.162,0.05,0.284,0.163,0.396c0.111,0.113,0.233,0.163,0.396,0.163h6.268
		c0.461,0,0.854,0.162,1.141,0.467c0.277,0.302,0.422,0.679,0.422,1.094v22.076c0,0.163,0.052,0.285,0.162,0.396
		c0.112,0.112,0.234,0.162,0.396,0.162h6.623c0.238,0,0.345-0.085,0.404-0.148c0.104-0.112,0.152-0.242,0.152-0.41V18.649
		c0-0.423,0.157-0.806,0.456-1.105c0.299-0.299,0.682-0.456,1.106-0.456h6.181c0.236,0,0.34-0.08,0.403-0.148
		c0.106-0.113,0.155-0.243,0.155-0.41v-6.004c0-0.166-0.049-0.296-0.155-0.409C125.846,10.048,125.742,9.968,125.505,9.968z"/>
	<path id="XMLID_67_" fill="#F9B212" d="M159.332,40.681l-12.894-30.023c-0.077-0.174-0.215-0.33-0.418-0.469
		c-0.195-0.132-0.384-0.198-0.577-0.198h-6.181c-0.223,0-0.426,0.065-0.622,0.199c-0.203,0.139-0.34,0.294-0.42,0.473L125.42,40.547
		c-0.107,0.215-0.104,0.309-0.099,0.341c0.013,0.081,0.039,0.145,0.08,0.192c0.046,0.052,0.108,0.092,0.19,0.122
		c0.106,0.039,0.204,0.058,0.292,0.058h7.594c0.193,0,0.383-0.065,0.579-0.199c0.202-0.138,0.34-0.293,0.42-0.474
		c0.008-0.016,0.257-0.521,0.573-1.136l0.071-0.222l4.037-10.422c0.015-0.099,0.036-0.203,0.088-0.32l2.201-5.328
		c0.262-0.587,0.612-0.708,0.862-0.708c0.248,0,0.599,0.121,0.855,0.694c0.358,0.867,0.74,1.786,1.152,2.771l0.486,1.176
		c0.217,0.526,0.409,0.995,0.576,1.413c0.065,0.112,0.117,0.263,0.139,0.42l4.01,10.302l0.612,1.357
		c0.089,0.157,0.251,0.33,0.465,0.476c0.195,0.134,0.399,0.199,0.622,0.199h7.551c0.408,0,0.484-0.137,0.51-0.182
		c0.106-0.196,0.084-0.309,0.045-0.394L159.332,40.681z"/>
	<path id="XMLID_66_" fill="#FFFFFF" d="M66.477,40.681L53.584,10.657c-0.079-0.173-0.216-0.33-0.42-0.469
		c-0.194-0.132-0.384-0.198-0.577-0.198h-6.18c-0.223,0-0.426,0.065-0.622,0.199c-0.203,0.139-0.341,0.295-0.422,0.474
		L32.564,40.547c-0.107,0.215-0.104,0.307-0.1,0.339c0.014,0.084,0.04,0.147,0.08,0.193c0.047,0.053,0.109,0.093,0.19,0.123
		c0.106,0.039,0.205,0.058,0.293,0.058h7.595c0.191,0,0.381-0.065,0.577-0.199c0.202-0.138,0.34-0.293,0.422-0.476
		c0.007-0.014,0.255-0.517,0.569-1.131l0.073-0.225l4.059-10.474c-0.01-0.019,0.008-0.136,0.067-0.268l2.201-5.328
		c0.261-0.587,0.611-0.708,0.862-0.708c0.248,0,0.601,0.121,0.855,0.696c0.358,0.866,0.739,1.784,1.151,2.77l1.063,2.588
		c0.065,0.112,0.116,0.264,0.139,0.419l4.011,10.303l0.611,1.357c0.088,0.157,0.25,0.33,0.465,0.476
		c0.195,0.134,0.398,0.199,0.622,0.199h7.55c0.41,0,0.484-0.136,0.508-0.181c0.108-0.196,0.085-0.309,0.049-0.393L66.477,40.681z"/>
	<path id="XMLID_65_" fill="#FFFFFF" d="M189.206,23.274H177.06c-0.913,0-1.655,0.743-1.655,1.657v3.628
		c0,0.914,0.742,1.657,1.655,1.657h5.912c0.088,0,0.158,0.071,0.158,0.158v2.186c0,0.056-0.019,0.091-0.033,0.102
		c-1.053,0.833-3.11,1.805-5.451,1.805c-4.881,0-8.423-3.728-8.423-8.863s3.542-8.864,8.423-8.864c2.313,0,4.47,1.065,5.916,2.922
		c0.49,0.634,1.365,0.812,2.079,0.424l3.593-1.948c0.422-0.229,0.724-0.628,0.828-1.093c0.105-0.469,0.005-0.959-0.279-1.348
		c-1.997-2.732-5.723-5.988-12.137-5.988c-9.463,0-16.332,6.685-16.332,15.895c0,9.234,6.869,15.938,16.332,15.938
		c5.004,0,9.422-1.903,12.772-5.503c0.287-0.306,0.443-0.71,0.443-1.137v-9.97C190.861,24.017,190.118,23.274,189.206,23.274z"/>
</g>
</svg>
